<svg width="109" height="113" viewBox="0 0 109 113" fill="none" xmlns="http://www.w3.org/2000/svg">
<path d="M55.4675 113C44.5746 113 34.9001 110.717 26.4438 106.152C18.1308 101.443 11.6095 94.9514 6.87968 86.6761C2.29323 78.2582 0 68.5562 0 57.5701C0 46.2986 2.29323 36.3826 6.87968 27.822C11.6095 19.1187 18.1308 12.3415 26.4438 7.49053C34.7567 2.49684 44.4313 0 55.4675 0C66.217 0 75.6049 2.35417 83.6312 7.0625C91.6575 11.7708 97.8922 18.12 102.335 26.1098C106.778 34.0997 109 43.1597 109 53.2898C109 54.7165 109 56.3573 109 58.2121C109 59.9242 108.857 61.7077 108.57 63.5625H20.6391V46.0133H79.7613C79.3314 39.0221 76.8231 33.529 72.2367 29.5341C67.7936 25.5391 62.2038 23.5417 55.4675 23.5417C50.5943 23.5417 46.0796 24.6831 41.9231 26.9659C37.7666 29.1061 34.4701 32.459 32.0335 37.0246C29.7403 41.5903 28.5937 47.3687 28.5937 54.3598V60.5663C28.5937 66.416 29.6686 71.5524 31.8185 75.9754C34.1118 80.2557 37.265 83.6086 41.2781 86.0341C45.2913 88.3169 49.9494 89.4583 55.2525 89.4583C60.5556 89.4583 64.927 88.3169 68.3669 86.0341C71.95 83.7513 74.6016 80.8264 76.3215 77.2595H105.99C103.984 83.9653 100.615 90.029 95.8856 95.4508C91.1558 100.872 85.3511 105.153 78.4714 108.292C71.5917 111.431 63.9237 113 55.4675 113Z" fill="#2D6A4F"/>
</svg>
